<svg width="40" height="50" viewBox="0 0 40 50" fill="none" xmlns="http://www.w3.org/2000/svg">
  <path d="M20 0C9.3 0 0 9.3 0 20C0 35 20 50 20 50S40 35 40 20C40 9.3 30.7 0 20 0Z" fill="#2563EB"/>
  <path d="M20 0C9.3 0 0 9.3 0 20C0 35 20 50 20 50S40 35 40 20C40 9.3 30.7 0 20 0Z" fill="url(#gradient)"/>
  <circle cx="20" cy="20" r="12" fill="white"/>
  <path d="M16 14H24V18H22V26H18V18H16V14Z" fill="#2563EB"/>
  <circle cx="20" cy="20" r="2" fill="#2563EB"/>
  <defs>
    <linearGradient id="gradient" x1="0%" y1="0%" x2="100%" y2="100%">
      <stop offset="0%" style="stop-color:#3B82F6;stop-opacity:1" />
      <stop offset="100%" style="stop-color:#1E40AF;stop-opacity:1" />
    </linearGradient>
  </defs>
</svg>
