<svg width="40" height="50" viewBox="0 0 40 50" fill="none" xmlns="http://www.w3.org/2000/svg">
  <path d="M20 0C9.3 0 0 9.3 0 20C0 35 20 50 20 50S40 35 40 20C40 9.3 30.7 0 20 0Z" fill="#DC2626"/>
  <path d="M20 0C9.3 0 0 9.3 0 20C0 35 20 50 20 50S40 35 40 20C40 9.3 30.7 0 20 0Z" fill="url(#gradient)"/>
  <circle cx="20" cy="20" r="12" fill="white"/>
  <path d="M26 14C26 11.7909 24.2091 10 22 10H18C15.7909 10 14 11.7909 14 14V26C14 28.2091 15.7909 30 18 30H22C24.2091 30 26 28.2091 26 26V14Z" fill="#DC2626"/>
  <circle cx="20" cy="20" r="3" fill="white"/>
  <defs>
    <linearGradient id="gradient" x1="0%" y1="0%" x2="100%" y2="100%">
      <stop offset="0%" style="stop-color:#EF4444;stop-opacity:1" />
      <stop offset="100%" style="stop-color:#B91C1C;stop-opacity:1" />
    </linearGradient>
  </defs>
</svg>
